<svg width="40" height="40" viewBox="0 0 40 40" fill="none" xmlns="http://www.w3.org/2000/svg">
<path d="M26.667 13.333L26.667 -5.82804e-07C26.667 7.3638 32.6362 13.333 40 13.333L26.667 13.333Z" fill="#2082BE"/>
<path d="M13.334 26.667L13.334 13.333C13.334 20.6968 19.3042 26.667 26.668 26.667L13.334 26.667Z" fill="#2082BE"/>
<path d="M26.666 13.333L26.666 -5.82847e-07C26.666 7.3638 20.6958 13.333 13.332 13.333L26.666 13.333Z" fill="#2082BE"/>
<path d="M13.333 26.667L13.333 13.333C13.333 20.6968 7.3638 26.667 5.82851e-07 26.667L13.333 26.667Z" fill="#2082BE"/>
<path d="M26.667 13.333L40 13.333C32.6362 13.333 26.667 19.3032 26.667 26.667L26.667 13.333Z" fill="#2082BE"/>
<path d="M13.334 26.667L26.668 26.667C19.3042 26.667 13.334 32.6362 13.334 40L13.334 26.667Z" fill="#2082BE"/>
<path d="M26.666 13.333L26.666 26.667C26.666 19.3032 20.6958 13.333 13.332 13.333L26.666 13.333Z" fill="#2082BE"/>
<path d="M13.333 26.667L13.333 40C13.333 32.6362 7.3638 26.667 1.58995e-07 26.667L13.333 26.667Z" fill="#2082BE"/>
</svg>
