<svg width="40" height="40" viewBox="0 0 40 40" fill="none" xmlns="http://www.w3.org/2000/svg">
<path d="M20 20L20 -8.74228e-07C20 11.0457 28.9543 20 40 20L20 20Z" fill="#2082BE"/>
<path d="M20 20L20 -8.52905e-07C20 11.0457 11.0457 20 8.96087e-07 20L20 20Z" fill="#2082BE"/>
<path d="M20 20L40 20C28.9543 20 20 28.9543 20 40L20 20Z" fill="#2082BE"/>
<path d="M20 20L20 40C20 28.9543 11.0457 20 2.38498e-07 20L20 20Z" fill="#2082BE"/>
<path d="M8 27C9.65685 27 11 28.3431 11 30C11 31.6569 9.65685 33 8 33C6.34315 33 5 31.6569 5 30C5 28.3431 6.34315 27 8 27Z" fill="#2082BE"/>
<path d="M8 6C9.65685 6 11 7.34315 11 9C11 10.6569 9.65685 12 8 12C6.34315 12 5 10.6569 5 9C5 7.34315 6.34315 6 8 6Z" fill="#2082BE"/>
<path d="M31 27C32.6569 27 34 28.3431 34 30C34 31.6569 32.6569 33 31 33C29.3431 33 28 31.6569 28 30C28 28.3431 29.3431 27 31 27Z" fill="#2082BE"/>
<path d="M31 6C32.6569 6 34 7.34315 34 9C34 10.6569 32.6569 12 31 12C29.3431 12 28 10.6569 28 9C28 7.34315 29.3431 6 31 6Z" fill="#2082BE"/>
</svg>
